<svg width="64px" height="64px" viewBox="0 0 64 64" xmlns="http://www.w3.org/2000/svg"><title>heart-breake-france-ico</title><g id="heart-breake-france-ico"><circle cx="36" cy="37" r="23" style="fill:#e5efef"/><path d="M41.79,9.514a13.594,13.594,0,0,0-9.554,4.02,13.594,13.594,0,0,0-9.554-4.02c-7.914,0-14.33,7.026-14.33,15.692S25.071,48.744,32.236,53.975C39.4,48.744,56.12,33.873,56.12,25.206S49.7,9.514,41.79,9.514Z" style="fill:#f53e28;stroke:#4c241d;stroke-linecap:round;stroke-linejoin:round;stroke-width:2px"/><line x1="49" y1="50" x2="49" y2="52" style="fill:none;stroke:#4c241d;stroke-linecap:round;stroke-linejoin:round;stroke-width:2px"/><line x1="49" y1="56" x2="49" y2="58" style="fill:none;stroke:#4c241d;stroke-linecap:round;stroke-linejoin:round;stroke-width:2px"/><line x1="45" y1="54" x2="47" y2="54" style="fill:none;stroke:#4c241d;stroke-linecap:round;stroke-linejoin:round;stroke-width:2px"/><line x1="51" y1="54" x2="53" y2="54" style="fill:none;stroke:#4c241d;stroke-linecap:round;stroke-linejoin:round;stroke-width:2px"/><path d="M60.082,40.667A1.069,1.069,0,1,1,59.013,39.6,1.07,1.07,0,0,1,60.082,40.667Z" style="fill:#4c241d"/><polygon points="17.692 60.138 14.552 50.716 24.497 40.771 27.638 50.193 17.692 60.138" style="fill:#9dc1e4;stroke:#4c241d;stroke-linecap:round;stroke-linejoin:round;stroke-width:2px"/><polygon points="5.13 47.576 14.552 50.716 24.497 40.771 15.075 37.63 5.13 47.576" style="fill:#9dc1e4;stroke:#4c241d;stroke-linecap:round;stroke-linejoin:round;stroke-width:2px"/><line x1="45.587" y1="19.509" x2="59.951" y2="5.471" style="fill:none;stroke:#4c241d;stroke-linecap:round;stroke-linejoin:round;stroke-width:2px"/><line x1="20.429" y1="44.839" x2="30.524" y2="34.744" style="fill:none;stroke:#4c241d;stroke-linecap:round;stroke-linejoin:round;stroke-width:2px"/><polygon points="47.668 7.986 61.87 3.389 57.391 17.037 54.865 10.314 47.668 7.986" style="fill:#fff;stroke:#4c241d;stroke-linecap:round;stroke-linejoin:round;stroke-width:2px"/><line x1="21.412" y1="43.856" x2="24.235" y2="53.595" style="fill:none;stroke:#4c241d;stroke-linecap:round;stroke-linejoin:round;stroke-width:2px"/><line x1="17.876" y1="47.392" x2="20.7" y2="57.131" style="fill:none;stroke:#4c241d;stroke-linecap:round;stroke-linejoin:round;stroke-width:2px"/><line x1="21.412" y1="43.856" x2="11.673" y2="41.033" style="fill:none;stroke:#4c241d;stroke-linecap:round;stroke-linejoin:round;stroke-width:2px"/><line x1="17.876" y1="47.392" x2="8.137" y2="44.568" style="fill:none;stroke:#4c241d;stroke-linecap:round;stroke-linejoin:round;stroke-width:2px"/><path d="M26,25a4,4,0,0,1-8,0" style="fill:none;stroke:#4c241d;stroke-linecap:round;stroke-linejoin:round;stroke-width:2px"/><path d="M48,25a4,4,0,0,1-8,0" style="fill:none;stroke:#4c241d;stroke-linecap:round;stroke-linejoin:round;stroke-width:2px"/></g></svg>